<svg width="194" height="250" viewBox="0 0 194 250" fill="none" xmlns="http://www.w3.org/2000/svg">
<path d="M25.1924 115.011C25.1924 109.497 21.5893 105.01 17.1617 105.01C12.7341 105.01 9.13096 109.497 9.13096 115.011C9.13096 120.524 12.7341 125.015 17.1617 125.015C21.5893 125.015 25.1924 120.524 25.1924 115.011ZM17.1617 107.965C18.5259 107.965 19.7595 108.593 20.7382 109.597C20.3289 109.442 19.8693 109.545 19.549 109.944L18.7097 110.993L17.1647 112.921L15.6196 110.993L14.7804 109.944C14.4571 109.542 13.9974 109.438 13.5912 109.597C14.5639 108.596 15.7975 107.965 17.1617 107.965ZM17.1617 122.057C14.0419 122.057 11.5064 118.899 11.5064 115.011C11.5064 113.312 12.0105 111.776 12.8172 110.557C12.6926 111.067 12.7756 111.639 13.0959 112.038L16.3224 116.056C16.5538 116.344 16.8592 116.488 17.1617 116.488C17.4642 116.488 17.7696 116.344 18.001 116.056L21.2275 112.038C21.5507 111.635 21.6338 111.063 21.5062 110.557C22.3129 111.776 22.817 113.312 22.817 115.011C22.817 118.896 20.2815 122.057 17.1617 122.057ZM192.939 247.057L183.734 245.827V234.32V191.708V186.028V134.893V130.691H184.829C185.484 130.691 186.015 130.026 186.015 129.214V123.534C186.015 122.718 185.481 122.057 184.829 122.057H183.734V115.011C183.734 114.195 183.2 113.534 182.548 113.534H180.315V89.4487C180.315 88.6326 179.781 87.9716 179.129 87.9716H174.568C173.912 87.9716 173.382 88.6363 173.382 89.4487V90.8114H151.804V88.027C151.804 87.2108 151.27 86.5498 150.618 86.5498H144.915H139.203H133.501H127.798H122.095H116.389H110.687H104.984C104.328 86.5498 103.798 87.2145 103.798 88.027V90.8114H61.6926V89.4487C61.6926 88.6326 61.1588 87.9716 60.5063 87.9716H55.9453C55.2899 87.9716 54.7591 88.6363 54.7591 89.4487V113.534H52.5201C51.8647 113.534 51.3339 114.198 51.3339 115.011V122.057H50.2366C49.5812 122.057 49.0504 122.721 49.0504 123.534V129.214C49.0504 130.03 49.5842 130.691 50.2366 130.691H51.3339V134.893V186.028V191.708V215.143C49.1601 212.924 46.4199 211.535 43.3951 211.535C39.8245 211.535 36.6128 213.415 34.3175 216.402V92.2849V86.6052V63.8793V52.5163V46.8367V35.4737C34.3175 34.8755 34.0268 34.3363 33.585 34.111C33.1401 33.8821 32.633 34.0077 32.289 34.4286L28.072 39.6762H25.1895V29.7941V24.1071C25.1895 23.9704 25.1539 23.8449 25.1272 23.7193C25.1183 23.675 25.1272 23.6307 25.1153 23.5864L18.2708 0.864132C17.9238 -0.288044 16.3936 -0.288044 16.0466 0.864132L9.20213 23.5864C9.19027 23.6307 9.19917 23.675 9.19027 23.7193C9.16061 23.8449 9.12799 23.9667 9.12799 24.1034V29.7867V39.6688H6.2425L2.02844 34.4212C1.6874 34.004 1.18029 33.8784 0.732493 34.1037C0.290624 34.3326 0 34.8681 0 35.4663V46.8293V52.5089V63.8793V86.6052V92.2849V222.957V248.523C0 249.339 0.5338 250 1.18622 250H5.74726H28.5583H29.7001H33.1223H63.9167H66.2002H102.7H104.984H130.078H132.359H168.859H171.143H182.548H192.815C193.447 250 193.965 249.383 193.998 248.6C194.034 247.818 193.565 247.138 192.939 247.057ZM175.754 112.171V106.488V97.9645V92.2849V90.9222H177.94V113.53H176.845H175.754V112.171ZM151.798 93.7657H173.376V96.4873H169.998H165.437H160.873H156.315H151.801V93.7657H151.798ZM172.284 107.85C171.896 107.85 171.54 107.98 171.19 108.127V106.488C171.19 105.738 171.679 105.129 172.284 105.129C172.889 105.129 173.379 105.738 173.379 106.488V108.127C173.029 107.98 172.673 107.85 172.284 107.85ZM173.379 112.171V113.53H171.19V112.171C171.19 111.418 171.679 110.808 172.284 110.808C172.889 110.808 173.379 111.418 173.379 112.171ZM172.284 102.171C171.896 102.171 171.54 102.3 171.19 102.448V99.4453H173.379V102.448C173.029 102.3 172.673 102.171 172.284 102.171ZM167.72 107.85C167.335 107.85 166.976 107.98 166.629 108.127V106.488C166.629 105.738 167.118 105.129 167.72 105.129C168.325 105.129 168.815 105.738 168.815 106.488V108.127C168.465 107.98 168.106 107.85 167.72 107.85ZM168.815 112.171V113.53H167.72H166.629V112.171C166.629 111.418 167.118 110.808 167.72 110.808C168.325 110.808 168.815 111.418 168.815 112.171ZM167.72 102.171C167.335 102.171 166.976 102.3 166.629 102.444V99.4416H168.815V102.444C168.465 102.3 168.106 102.171 167.72 102.171ZM163.159 107.85C162.771 107.85 162.415 107.98 162.065 108.127V106.488C162.065 105.738 162.554 105.129 163.159 105.129C163.764 105.129 164.254 105.738 164.254 106.488V108.127C163.904 107.98 163.545 107.85 163.159 107.85ZM164.254 112.171V113.53H163.159H162.065V112.171C162.065 111.418 162.554 110.808 163.159 110.808C163.764 110.808 164.254 111.418 164.254 112.171ZM163.159 102.171C162.771 102.171 162.415 102.3 162.065 102.448V99.4453H164.254V102.448C163.904 102.3 163.545 102.171 163.159 102.171ZM158.595 107.85C158.207 107.85 157.851 107.98 157.501 108.127V106.488C157.501 105.738 157.99 105.129 158.595 105.129C159.197 105.129 159.687 105.738 159.687 106.488V108.127C159.34 107.98 158.984 107.85 158.595 107.85ZM159.69 112.171V113.53H157.501V112.171C157.501 111.418 157.99 110.808 158.595 110.808C159.2 110.808 159.69 111.418 159.69 112.171ZM158.595 102.171C158.207 102.171 157.851 102.3 157.501 102.448V99.4453H159.687V102.448C159.34 102.3 158.984 102.171 158.595 102.171ZM154.031 107.85C153.646 107.85 153.287 107.98 152.94 108.127V106.488C152.94 105.738 153.429 105.129 154.031 105.129C154.636 105.129 155.126 105.738 155.126 106.488V108.127C154.779 107.98 154.42 107.85 154.031 107.85ZM155.128 112.171V113.53H154.031H152.94V112.171C152.94 111.418 153.429 110.808 154.031 110.808C154.636 110.808 155.128 111.418 155.128 112.171ZM154.031 102.171C153.646 102.171 153.287 102.3 152.94 102.444V99.4416H155.128V102.444C154.779 102.3 154.42 102.171 154.031 102.171ZM146.098 89.5004H149.426V103.434H146.098V89.5004ZM150.564 112.23V113.534H149.47H148.376V112.23H150.564ZM146.098 106.395H149.426V109.272H146.098V106.395ZM143.815 112.23H144.909H146.001V113.534H143.815V112.23ZM140.393 89.5004H143.723V103.434H140.393V89.5004ZM140.393 106.395H143.723V109.272H140.393V106.395ZM139.251 112.23H141.439V113.534H140.345H139.251V112.23ZM134.69 97.9645V89.5004H138.017V103.434H134.69V97.9645ZM134.69 106.395H138.017V109.272H134.69V106.395ZM134.69 112.23H136.875V113.534H135.784H134.69V112.23ZM128.987 89.5004H132.314V97.9645V103.434H128.987V89.5004ZM128.987 106.395H132.314V109.272H128.987V106.395ZM132.314 112.23V113.534H130.129V112.23H132.314ZM123.284 89.5004H126.612V103.434H123.284V89.5004ZM127.753 112.23V113.534H126.659H125.565V112.23H127.753ZM123.284 106.395H126.612V109.272H123.284V106.395ZM121.004 112.23H122.098H123.189V113.534H122.098H121.004V112.23ZM117.579 89.5004H120.909V103.434H117.579V89.5004ZM117.579 106.395H120.909V109.272H117.579V106.395ZM116.443 112.23H118.628V113.534H116.443V112.23ZM111.879 97.9645V89.5004H115.206V103.434H111.879V97.9645ZM111.879 106.395H115.206V109.272H111.879V106.395ZM111.879 112.23H114.067V113.534H112.973H111.879V112.23ZM106.176 89.5004H109.503V97.9645V103.434H106.176V89.5004ZM106.176 106.395H109.503V109.272H106.176V106.395ZM109.503 112.23V113.534H108.409H107.318V112.23H109.503ZM103.812 110.816C103.842 111.576 104.328 112.186 104.942 112.215V113.53H102.754V112.171C102.751 111.432 103.222 110.842 103.812 110.816ZM103.801 105.14V107.861C103.43 107.869 103.086 107.983 102.751 108.127V106.488C102.751 105.756 103.219 105.173 103.801 105.14ZM102.751 102.448V99.4453H103.801V102.182C103.43 102.189 103.086 102.307 102.751 102.448ZM61.6926 93.7657H103.801V96.4873H101.565H97.0035H92.4425H87.8785H83.3174H78.7534H74.1924H69.6314H65.0644H61.6896V93.7657H61.6926ZM99.284 107.85C98.8955 107.85 98.5397 107.98 98.1897 108.127V106.488C98.1897 105.738 98.679 105.129 99.284 105.129C99.886 105.129 100.375 105.738 100.375 106.488V108.127C100.028 107.98 99.6725 107.85 99.284 107.85ZM100.378 112.171V113.53H99.287H98.1897V112.171C98.1897 111.418 98.679 110.808 99.284 110.808C99.889 110.808 100.378 111.418 100.378 112.171ZM99.284 102.171C98.8955 102.171 98.5397 102.3 98.1897 102.448V99.4453H100.375V102.448C100.028 102.3 99.6725 102.171 99.284 102.171ZM94.72 107.85C94.3345 107.85 93.9757 107.98 93.6287 108.127V106.488C93.6287 105.738 94.118 105.129 94.72 105.129C95.325 105.129 95.8143 105.738 95.8143 106.488V108.127C95.4673 107.98 95.1085 107.85 94.72 107.85ZM95.8173 112.171V113.53H94.72H93.6287V112.171C93.6287 111.418 94.118 110.808 94.72 110.808C95.325 110.808 95.8173 111.418 95.8173 112.171ZM94.72 102.171C94.3345 102.171 93.9757 102.3 93.6287 102.444V99.4416H95.8173V102.444C95.4673 102.3 95.1085 102.171 94.72 102.171ZM90.159 107.85C89.7705 107.85 89.4146 107.98 89.0647 108.127V106.488C89.0647 105.738 89.554 105.129 90.159 105.129C90.764 105.129 91.2533 105.738 91.2533 106.488V108.127C90.9063 107.98 90.5475 107.85 90.159 107.85ZM91.2533 112.171V113.53H89.0647V112.171C89.0647 111.418 89.554 110.808 90.159 110.808C90.764 110.808 91.2533 111.418 91.2533 112.171ZM90.159 102.171C89.7705 102.171 89.4146 102.3 89.0647 102.448V99.4453H91.2533V102.448C90.9063 102.3 90.5475 102.171 90.159 102.171ZM85.5979 107.85C85.2095 107.85 84.8536 107.98 84.5037 108.127V106.488C84.5037 105.738 84.993 105.129 85.5979 105.129C86.2 105.129 86.6893 105.738 86.6893 106.488V108.127C86.3423 107.98 85.9864 107.85 85.5979 107.85ZM86.6893 112.171V113.53H85.5979H84.5037V112.171C84.5037 111.418 84.993 110.808 85.5979 110.808C86.2 110.808 86.6893 111.418 86.6893 112.171ZM85.5979 102.171C85.2095 102.171 84.8536 102.3 84.5037 102.448V99.4453H86.6893V102.448C86.3423 102.3 85.9864 102.171 85.5979 102.171ZM81.034 107.85C80.6455 107.85 80.2896 107.98 79.9397 108.127V106.488C79.9397 105.738 80.429 105.129 81.034 105.129C81.6389 105.129 82.1282 105.738 82.1282 106.488V108.127C81.7813 107.98 81.4224 107.85 81.034 107.85ZM82.1282 112.171V113.53H81.034H79.9397V112.171C79.9397 111.418 80.429 110.808 81.034 110.808C81.6389 110.808 82.1282 111.418 82.1282 112.171ZM81.034 102.171C80.6455 102.171 80.2896 102.3 79.9397 102.448V99.4453H82.1282V102.448C81.7813 102.3 81.4224 102.171 81.034 102.171ZM76.4729 107.85C76.0844 107.85 75.7286 107.98 75.3786 108.127V106.488C75.3786 105.738 75.8679 105.129 76.4729 105.129C77.0749 105.129 77.5642 105.738 77.5642 106.488V108.127C77.2173 107.98 76.8614 107.85 76.4729 107.85ZM77.5642 112.171V113.53H75.3786V112.171C75.3786 111.418 75.8679 110.808 76.4729 110.808C77.0749 110.808 77.5642 111.418 77.5642 112.171ZM76.4729 102.171C76.0844 102.171 75.7286 102.3 75.3786 102.448V99.4453H77.5642V102.448C77.2173 102.3 76.8614 102.171 76.4729 102.171ZM71.9089 107.85C71.5234 107.85 71.1646 107.98 70.8176 108.127V106.488C70.8176 105.738 71.3069 105.129 71.9089 105.129C72.5139 105.129 73.0032 105.738 73.0032 106.488V108.127C72.6562 107.98 72.2974 107.85 71.9089 107.85ZM73.0032 112.171V113.53H71.9089H70.8176V112.171C70.8176 111.418 71.3069 110.808 71.9089 110.808C72.5139 110.808 73.0032 111.418 73.0032 112.171ZM71.9089 102.171C71.5234 102.171 71.1646 102.3 70.8176 102.444V99.4416H73.0032V102.444C72.6562 102.3 72.2974 102.171 71.9089 102.171ZM67.3479 107.85C66.9594 107.85 66.6035 107.98 66.2536 108.127V106.488C66.2536 105.738 66.7429 105.129 67.3479 105.129C67.9529 105.129 68.4422 105.738 68.4422 106.488V108.127C68.0922 107.98 67.7364 107.85 67.3479 107.85ZM68.4422 112.171V113.53H67.3479H66.2536V112.171C66.2536 111.418 66.7429 110.808 67.3479 110.808C67.9529 110.808 68.4422 111.418 68.4422 112.171ZM67.3479 102.171C66.9594 102.171 66.6035 102.3 66.2536 102.448V99.4453H68.4422V102.448C68.0922 102.3 67.7364 102.171 67.3479 102.171ZM61.6926 99.4453H63.8782V102.448C63.5312 102.3 63.1724 102.174 62.7869 102.174C62.3984 102.174 62.0425 102.304 61.6926 102.451V99.4453ZM61.6926 106.488C61.6926 105.738 62.1819 105.129 62.7869 105.129C63.3889 105.129 63.8782 105.738 63.8782 106.488V108.127C63.5312 107.98 63.1724 107.85 62.7869 107.85C62.3984 107.85 62.0425 107.98 61.6926 108.127V106.488ZM61.6926 112.171C61.6926 111.418 62.1819 110.808 62.7869 110.808C63.3889 110.808 63.8782 111.418 63.8782 112.171V113.53H61.6926V112.171ZM57.1315 90.9222H59.3171V92.2849V97.9645V106.488V112.171V113.53H58.2229H57.1315V90.9222ZM53.7063 116.488H55.9423H57.0337V117.851C57.0337 118.667 57.5675 119.328 58.2199 119.328H60.5034C61.1588 119.328 61.6896 118.663 61.6896 117.851V116.488H63.8752V117.851C63.8752 118.667 64.409 119.328 65.0614 119.328H67.3479C68.0033 119.328 68.5341 118.663 68.5341 117.851V116.488H69.6284H70.7197V117.851C70.7197 118.667 71.2535 119.328 71.906 119.328H74.1894C74.8448 119.328 75.3757 118.663 75.3757 117.851V116.488H77.5613V117.851C77.5613 118.667 78.0951 119.328 78.7475 119.328H81.031C81.6864 119.328 82.2172 118.663 82.2172 117.851V116.488H83.3115H84.4058V117.851C84.4058 118.667 84.9396 119.328 85.592 119.328H87.8725C88.5279 119.328 89.0588 118.663 89.0588 117.851V116.488H91.2473V117.851C91.2473 118.667 91.7811 119.328 92.4336 119.328H94.7141C95.3695 119.328 95.9003 118.663 95.9003 117.851V116.488H97.0035H98.0978V117.851C98.0978 118.667 98.6316 119.328 99.284 119.328H101.565C102.22 119.328 102.751 118.663 102.751 117.851V116.488H104.939V117.851C104.939 118.667 105.473 119.328 106.126 119.328H108.406C109.061 119.328 109.592 118.663 109.592 117.851V116.488H110.687H111.781V117.851C111.781 118.667 112.315 119.328 112.967 119.328H115.251C115.906 119.328 116.437 118.663 116.437 117.851V116.488H118.622V117.851C118.622 118.667 119.156 119.328 119.809 119.328H122.092C122.748 119.328 123.278 118.663 123.278 117.851V116.488H124.37H125.473V117.851C125.473 118.667 126.007 119.328 126.659 119.328H128.943C129.598 119.328 130.129 118.663 130.129 117.851V116.488H132.314V117.851C132.314 118.667 132.848 119.328 133.501 119.328H135.784C136.44 119.328 136.97 118.663 136.97 117.851V116.488H138.062H139.156V117.851C139.156 118.667 139.69 119.328 140.342 119.328H142.626C143.281 119.328 143.812 118.663 143.812 117.851V116.488H145.998V117.851C145.998 118.667 146.531 119.328 147.184 119.328H149.467C150.123 119.328 150.653 118.663 150.653 117.851V116.488H151.748H152.839V117.851C152.839 118.667 153.373 119.328 154.025 119.328H156.315C156.97 119.328 157.501 118.663 157.501 117.851V116.488H159.687V117.851C159.687 118.667 160.22 119.328 160.873 119.328H163.156C163.812 119.328 164.342 118.663 164.342 117.851V116.488H165.437H166.528V117.851C166.528 118.667 167.062 119.328 167.714 119.328H169.998C170.653 119.328 171.184 118.663 171.184 117.851V116.488H173.373V117.851C173.373 118.667 173.906 119.328 174.559 119.328H176.839C177.495 119.328 178.026 118.663 178.026 117.851V116.488H179.12H181.353V122.057H53.7063V116.488ZM43.3951 214.493C49.0296 214.493 53.6144 220.199 53.6144 227.215C53.6144 227.64 53.5462 228.039 53.5135 228.452L33.2943 225.756C33.8845 219.434 38.1608 214.493 43.3951 214.493ZM29.7535 41.7664L31.9421 39.0373V45.3595H29.7535V41.7664ZM17.1617 5.591L22.2921 22.6299H12.0283L17.1617 5.591ZM11.5064 25.5879H22.817V28.3132H11.5064V25.5879ZM11.5064 31.2712H22.817V39.6725H11.5064V31.2712ZM6.94238 42.6305H10.3202H24.0062H27.381V45.3558H6.94238V42.6305ZM2.38134 39.0373L4.56696 41.7627V45.3558H2.38134V39.0373ZM2.38134 48.3138H5.75615H28.5672H31.945V51.0355H2.38134V48.3138ZM2.38134 53.9935H31.945V62.4021H28.5672H24.0062H19.4422H14.8812H10.3202H5.75318H2.37837V53.9935H2.38134ZM31.9421 65.3564V85.1281H29.7535V65.3564H31.9421ZM27.3781 65.3564V85.1281H25.1924V65.3564H27.3781ZM22.817 65.3564V85.1281H20.6284V65.3564H22.817ZM18.253 65.3564V85.1281H16.0674V65.3564H18.253ZM13.692 65.3564V85.1281H11.5064V65.3564H13.692ZM9.13096 65.3564V85.1281H6.94238V65.3564H9.13096ZM2.38134 65.3564H4.56696V85.1281H2.38134V65.3564ZM2.38134 88.0861H5.75615H10.3202H14.8812H19.4422H24.0062H28.5672H31.945V90.8077H28.5672H5.75318H2.37837V88.0861H2.38134ZM31.9421 93.7657V220.778C31.5476 221.86 31.2363 222.998 31.0465 224.194C30.6669 223.485 30.2191 222.843 29.7535 222.222V93.7657H31.9421ZM20.581 220.173C23.8579 220.173 26.7464 222.137 28.6177 225.132L14.0568 223.19C15.8331 221.336 18.0899 220.173 20.581 220.173ZM11.0408 222.787L6.94238 222.241V93.7657H27.381V219.737C25.4178 218.16 23.0899 217.218 20.584 217.218C16.7495 217.215 13.351 219.408 11.0408 222.787ZM2.38134 93.7657H4.56696V221.923L2.38134 221.631V93.7657ZM169.956 247.046H167.673H133.548H131.268H103.798H101.514H67.3953H65.1118H31.9421H30.8922H27.3751H6.93644H2.37541V224.604L170.606 247.046H169.956ZM69.059 227.274C71.6064 227.274 73.8514 228.892 75.177 231.344L63.9671 229.848C65.2898 228.264 67.081 227.274 69.059 227.274ZM67.3953 224.527V224.438H68.116C67.8728 224.467 67.6296 224.475 67.3953 224.527ZM79.8774 224.438H84.4592H89.0202H93.6969H101.52V227.16H75.2511C73.795 225.653 71.9949 224.682 70.008 224.438H75.2007H79.8774ZM76.3869 221.48V217.676L78.6882 216.402V221.48H76.3869ZM85.5505 207.137V210.582L84.9396 210.243H84.9366C84.7913 210.161 84.6312 210.113 84.4592 210.113C84.2901 210.113 84.13 210.161 83.9817 210.243C83.9817 210.243 83.9787 210.243 83.9758 210.243L81.0784 211.845V207.133H85.5505V207.137ZM81.0814 204.179V201.708H85.5505V204.179H81.0814ZM83.27 213.865V221.476H81.0636V215.084L83.27 213.865ZM85.6454 221.48V213.869L87.831 215.08V221.484H85.6454V221.48ZM92.392 204.179H87.9229V201.708H92.392V204.179ZM92.5077 217.665V221.48H90.2064V216.391L92.5077 217.665ZM92.392 207.137V214.371L87.9229 211.897V207.137H92.392ZM94.8831 221.48V218.98L99.3967 221.48H94.8831ZM101.517 230.118V234.859L78.0298 231.728C77.8371 231.163 77.585 230.638 77.327 230.118H101.517ZM74.0115 221.48H69.5127L74.0115 218.991V221.48ZM71.8615 204.179H67.3924V201.708H71.8615V204.179ZM71.8615 207.137V215.797H67.3924V207.137H71.8615ZM108.578 235.801H131.173V238.523H130.081C129.948 238.523 129.823 238.567 129.702 238.619L108.578 235.801ZM141.353 224.438H146.03H150.612H155.173H159.85H167.673V227.16H133.548V224.438H141.353ZM135.671 221.48L140.167 218.991V221.48H135.671ZM147.142 207.137V211.901L142.673 214.375V207.141H147.142V207.137ZM142.673 204.179V201.708H147.142V204.179H142.673ZM144.844 216.402V221.48H142.543V217.676L144.844 216.402ZM147.219 221.48V215.091L149.426 213.869V221.48H147.219ZM153.987 207.137V211.845L151.092 210.243H151.089C150.944 210.161 150.784 210.113 150.612 210.113C150.443 210.113 150.283 210.161 150.134 210.243H150.129L149.515 210.582V207.133H153.987V207.137ZM149.518 204.179V201.708H153.987V204.179H149.518ZM153.987 215.077V215.797V221.48H151.801V213.869L153.987 215.077ZM156.362 221.48V217.274V216.391L158.663 217.665V221.48H156.362ZM167.673 207.137V215.797H163.204V207.137H167.673ZM163.204 204.179V201.708H167.673V204.179H163.204ZM165.552 221.48H161.039V218.98L165.552 221.48ZM169.956 241.481V243.988L151.152 241.481H169.956ZM167.673 230.118V238.523H133.548V230.118H167.673ZM181.359 245.509L172.329 244.306V240C172.329 239.184 171.795 238.523 171.143 238.523H170.048V235.801H181.359V245.509ZM181.359 232.843H170.048V228.637V224.434H171.143C171.7 224.434 172.189 223.943 172.305 223.264C172.421 222.584 172.136 221.89 171.626 221.609L166.466 218.755H168.862H175.707C176.362 218.755 176.893 218.09 176.893 217.277V205.66V200.231C176.893 199.415 176.359 198.754 175.707 198.754H168.859H162.015C161.359 198.754 160.828 199.419 160.828 200.231V205.66V215.638L156.359 213.164V205.66V200.231C156.359 199.415 155.825 198.754 155.173 198.754H148.328H141.487C140.832 198.754 140.301 199.419 140.301 200.231V205.66V215.69L135.363 218.422C135.642 218.153 135.832 217.746 135.832 217.274V205.656V200.227C135.832 199.411 135.298 198.75 134.645 198.75H127.801H120.956C120.301 198.75 119.77 199.415 119.77 200.227V205.656V217.274C119.77 218.09 120.304 218.751 120.956 218.751H127.801H134.645C134.722 218.751 134.791 218.714 134.862 218.696L129.604 221.606C129.091 221.886 128.806 222.58 128.925 223.26C129.043 223.939 129.527 224.431 130.087 224.431H131.179V228.633V232.839H103.898V228.633V224.431H104.993C105.55 224.431 106.04 223.939 106.155 223.26C106.271 222.58 105.986 221.886 105.476 221.606L100.218 218.696C100.292 218.714 100.358 218.751 100.435 218.751H107.279H114.124C114.779 218.751 115.31 218.086 115.31 217.274V205.656V200.227C115.31 199.411 114.776 198.75 114.124 198.75H107.279H100.435C99.7793 198.75 99.2484 199.415 99.2484 200.227V205.656V217.274C99.2484 217.746 99.4382 218.149 99.717 218.422L94.7764 215.686V205.66V200.231C94.7764 199.415 94.2426 198.754 93.5901 198.754H86.7456H79.8922C79.2368 198.754 78.706 199.419 78.706 200.231V205.66V213.164L74.2369 215.634V205.656V200.227C74.2369 199.411 73.7031 198.75 73.0507 198.75H66.2061H59.3616C58.7062 198.75 58.1754 199.415 58.1754 200.227V205.656V217.274C58.1754 218.09 58.7092 218.751 59.3616 218.751H66.2061H68.6053L63.4452 221.606C62.9322 221.886 62.6475 222.58 62.7661 223.26C62.8847 223.939 63.3681 224.431 63.9286 224.431H65.0229V225.435C63.4541 226.332 62.1107 227.721 61.1202 229.46L55.8652 228.759C55.9067 228.242 55.9898 227.739 55.9898 227.208C55.9898 223.877 55.1357 220.797 53.7063 218.252V193.178H181.359V232.843ZM174.517 207.137V215.797H170.048V207.137H174.517ZM170.048 204.179V201.708H174.517V204.179H170.048ZM128.987 204.179V201.708H133.456V204.179H128.987ZM133.456 207.137V215.797H128.987V207.137H133.456ZM122.143 204.179V201.708H126.612V204.179H122.143ZM126.612 207.137V215.797H122.143V207.137H126.612ZM106.081 207.137V215.797H101.612V207.137H106.081ZM101.615 204.179V201.708H106.084V204.179H101.615ZM112.926 207.137V215.797H108.456V207.137H112.926ZM108.456 204.179V201.708H112.926V204.179H108.456ZM60.5508 204.179V201.708H65.0199V204.179H60.5508ZM65.0199 207.137V215.797H60.5508V207.137H65.0199ZM181.359 190.231H53.7063V187.509H57.0811H63.9256H73.0507H79.8952H93.5812H100.429H114.115H120.959H134.645H141.487H155.173H162.017H171.143H177.987H181.362V190.231H181.359ZM53.7063 184.551V136.374H55.8919V140.58V180.349V184.555H53.7063V184.551ZM62.7364 142.057V178.868H58.2673V142.057H62.7364ZM58.2673 139.099V136.374H62.7364V139.099H58.2673ZM62.7364 181.822V184.548H58.2673V181.822H62.7364ZM65.1118 184.551V180.345V140.58V136.374H71.8615V140.58V180.349V184.555H65.1118V184.551ZM78.706 142.057V143.416V177.505V178.864H74.2369V142.057H78.706ZM74.2369 139.099V136.374H78.706V139.099H74.2369ZM78.706 181.822V184.548H74.2369V181.822H78.706ZM87.9229 164.41V156.135H92.392V164.41H87.9229ZM92.392 167.365V176.028H87.9229V167.365H92.392ZM87.9229 153.177V145.145H92.392V153.177H87.9229ZM86.7367 141.939H81.0814V140.58V136.374H92.392V140.58V141.939H86.7367ZM85.5505 145.145V153.177H81.0814V145.145H85.5505ZM85.5505 156.131V164.407H81.0814V156.131H85.5505ZM85.5505 167.365V176.028H81.0814V167.365H85.5505ZM86.7367 178.986H92.392V180.345V184.551H81.0814V180.345V178.986H86.7367ZM99.2395 142.057V143.416V177.505V178.864H94.7675V177.509V143.42V142.057H99.2395ZM94.7675 139.099V136.374H99.2395V139.099H94.7675ZM99.2395 181.822V184.548H94.7675V181.822H99.2395ZM108.456 164.41V156.135H112.926V164.41H108.456ZM112.926 167.365V176.028H108.456V167.365H112.926ZM108.456 153.177V145.145H112.926V153.177H108.456ZM107.27 141.939H101.615V140.58V136.374H112.926V140.58V141.939H107.27ZM106.081 145.145V153.177H101.612V145.145H106.081ZM106.081 156.131V164.407H101.612V156.131H106.081ZM106.081 167.365V176.028H101.612V167.365H106.081ZM107.27 178.986H112.926V180.345V184.551H101.615V180.345V178.986H107.27ZM119.77 142.057V143.416V177.505V178.864H115.301V177.509V143.42V142.057H119.77ZM115.301 139.099V136.374H119.77V139.099H115.301ZM119.77 181.822V184.548H115.301V181.822H119.77ZM128.987 164.41V156.135H133.456V164.41H128.987ZM133.456 167.365V176.028H128.987V167.365H133.456ZM128.987 153.177V145.145H133.456V153.177H128.987ZM127.801 141.939H122.146V140.58V136.374H133.456V140.58V141.939H127.801ZM126.612 145.145V153.177H122.143V145.145H126.612ZM126.612 156.131V164.407H122.143V156.131H126.612ZM126.612 167.365V176.028H122.143V167.365H126.612ZM127.801 178.986H133.456V180.345V184.551H122.146V180.345V178.986H127.801ZM140.301 142.057V143.416V177.505V178.864H135.832V177.509V143.42V142.057H140.301ZM135.832 139.099V136.374H140.301V139.099H135.832ZM140.301 181.822V184.548H135.832V181.822H140.301ZM149.518 164.41V156.135H153.987V164.41H149.518ZM153.987 167.365V176.028H149.518V167.365H153.987ZM149.518 153.177V145.145H153.987V153.177H149.518ZM148.331 141.939H142.673V140.58V136.374H153.984V140.58V141.939H148.331ZM147.142 145.145V153.177H142.673V145.145H147.142ZM147.142 156.131V164.407H142.673V156.131H147.142ZM147.142 167.365V176.028H142.673V167.365H147.142ZM148.331 178.986H153.987V180.345V184.551H142.673V180.345V178.986H148.331ZM160.828 142.057V178.868H156.359V177.509V143.42V142.057H160.828ZM156.362 139.099V136.374H160.831V139.099H156.362ZM160.828 181.822V184.548H156.359V181.822H160.828ZM163.204 184.551V180.345V140.58V136.374H169.956V140.58V180.349V184.555H163.204V184.551ZM176.798 142.057V178.868H172.329V142.057H176.798ZM172.329 139.099V136.374H176.798V139.099H172.329ZM176.798 181.822V184.548H172.329V181.822H176.798ZM181.359 184.551H179.173V180.345V140.58V136.374H181.359V184.551ZM181.359 133.416H177.984H171.143H162.017H155.173H141.487H134.642H120.956H114.112H100.426H93.5783H79.8922H73.0477H63.9227H57.0781H53.7063V130.694H181.359V133.416ZM183.642 127.736H182.548H52.5201H51.4258V125.015H52.5201H182.548H183.642V127.736Z" fill="black"/>
</svg>
