<svg width="47" height="54" viewBox="0 0 47 54" fill="none" xmlns="http://www.w3.org/2000/svg">
<g clip-path="url(#clip0)">
<path d="M23.5105 14.8145C16.8382 14.8145 11.4562 20.1249 11.4562 26.7085C11.4562 33.292 16.8382 38.6024 23.5105 38.6024C30.1828 38.6024 35.5647 33.292 35.5647 26.7085C35.5647 20.1249 30.1828 14.8145 23.5105 14.8145ZM23.5105 34.4411C19.1987 34.4411 15.6737 30.9733 15.6737 26.7085C15.6737 22.4436 19.1882 18.9758 23.5105 18.9758C27.8328 18.9758 31.3473 22.4436 31.3473 26.7085C31.3473 30.9733 27.8223 34.4411 23.5105 34.4411ZM38.8694 14.328C38.8694 15.8704 37.6105 17.1022 36.0578 17.1022C34.4946 17.1022 33.2462 15.86 33.2462 14.328C33.2462 12.7959 34.5051 11.5538 36.0578 11.5538C37.6105 11.5538 38.8694 12.7959 38.8694 14.328ZM46.8531 17.1436C46.6748 13.4274 45.8145 10.1356 43.0553 7.42349C40.3067 4.71138 36.9705 3.86255 33.2042 3.67622C29.3225 3.45884 17.6879 3.45884 13.8062 3.67622C10.0504 3.8522 6.71428 4.70103 3.95513 7.41314C1.19598 10.1252 0.3462 13.417 0.157361 17.1333C-0.0629517 20.9633 -0.0629517 32.4432 0.157361 36.2733C0.335709 39.9895 1.19598 43.2813 3.95513 45.9934C6.71428 48.7055 10.0399 49.5544 13.8062 49.7407C17.6879 49.9581 29.3225 49.9581 33.2042 49.7407C36.9705 49.5647 40.3067 48.7159 43.0553 45.9934C45.804 43.2813 46.6643 39.9895 46.8531 36.2733C47.0734 32.4432 47.0734 20.9737 46.8531 17.1436ZM41.8384 40.3829C41.0201 42.4118 39.4359 43.9749 37.3692 44.7926C34.2743 46.0038 26.9306 45.7243 23.5105 45.7243C20.0904 45.7243 12.7362 45.9934 9.65178 44.7926C7.59553 43.9852 6.01138 42.4221 5.18258 40.3829C3.95513 37.3292 4.23839 30.0831 4.23839 26.7085C4.23839 23.3338 3.96562 16.0774 5.18258 13.034C6.00089 11.0051 7.58504 9.44204 9.65178 8.62427C12.7466 7.41314 20.0904 7.69263 23.5105 7.69263C26.9306 7.69263 34.2848 7.42349 37.3692 8.62427C39.4254 9.43169 41.0096 10.9948 41.8384 13.034C43.0658 16.0877 42.7826 23.3338 42.7826 26.7085C42.7826 30.0831 43.0658 37.3395 41.8384 40.3829Z" fill="black"/>
</g>
<defs>
<clipPath id="clip0">
<rect width="47" height="53" fill="white" transform="translate(0 0.21875)"/>
</clipPath>
</defs>
</svg>
