<svg width="30" height="41" viewBox="0 0 30 41" fill="none" xmlns="http://www.w3.org/2000/svg">
<g clip-path="url(#clip0)">
<path d="M3.35157 18.9938L11.1344 22.7914C12.6344 23.5258 12.4 25.7219 10.7828 26.1282L2.38282 28.2227C2.13623 28.2847 1.87923 28.2932 1.6291 28.2475C1.37897 28.2019 1.14151 28.1032 0.932704 27.9582C0.723898 27.8131 0.548585 27.625 0.418562 27.4065C0.288539 27.188 0.206822 26.9442 0.178909 26.6914C-0.0788377 24.4449 0.16122 22.1691 0.882034 20.0258C0.962898 19.7858 1.09403 19.5657 1.26668 19.3804C1.43933 19.195 1.64953 19.0486 1.88325 18.9509C2.11697 18.8533 2.36883 18.8066 2.62203 18.814C2.87523 18.8213 3.12394 18.8827 3.35157 18.9938ZM6.78907 37.6852C8.65119 38.9609 10.7682 39.8169 12.9938 40.1938C13.2442 40.2368 13.5009 40.2256 13.7467 40.1611C13.9925 40.0966 14.2216 39.9802 14.4186 39.8197C14.6157 39.6592 14.776 39.4584 14.889 39.2308C15.0019 39.0032 15.0648 38.754 15.0734 38.5L15.3781 29.8422C15.4328 28.1782 13.3859 27.3493 12.268 28.5844L6.47032 35.0219C6.30054 35.2108 6.17309 35.4338 6.09649 35.676C6.0199 35.9181 5.99592 36.1738 6.02618 36.426C6.05643 36.6782 6.14022 36.921 6.27192 37.1381C6.40362 37.3553 6.58021 37.5418 6.78985 37.6852H6.78907ZM18.1438 29.0977L22.7383 36.4414C22.8737 36.6571 23.0536 36.8413 23.2658 36.982C23.4781 37.1226 23.7179 37.2164 23.9692 37.2571C24.2206 37.2977 24.4777 37.2843 24.7235 37.2178C24.9693 37.1512 25.198 37.0331 25.3945 36.8711C27.1358 35.4317 28.5413 33.6289 29.5125 31.5891C29.6195 31.3594 29.6768 31.1097 29.6805 30.8564C29.6842 30.603 29.6343 30.3518 29.534 30.1191C29.4337 29.8864 29.2854 29.6775 29.0987 29.5062C28.912 29.3349 28.6912 29.205 28.4508 29.125L20.2148 26.4485C18.6281 25.9407 17.2609 27.6828 18.1438 29.0977ZM29.732 18.7672C28.8316 16.6957 27.4871 14.8472 25.7938 13.3524C25.6032 13.1854 25.3793 13.0609 25.137 12.9871C24.8946 12.9133 24.6393 12.892 24.388 12.9245C24.1368 12.957 23.8953 13.0426 23.6797 13.1757C23.4641 13.3087 23.2793 13.4861 23.1375 13.6961L18.2938 20.8774C17.3641 22.2602 18.6609 24.05 20.2625 23.5891L28.5938 21.2055C28.8379 21.1336 29.0641 21.0107 29.2572 20.8449C29.4503 20.679 29.6059 20.4741 29.7138 20.2435C29.8218 20.013 29.8795 19.7622 29.8831 19.5077C29.8868 19.2532 29.8364 19.0008 29.7352 18.7672H29.732ZM4.85235 2.57659C4.63105 2.6831 4.43409 2.8341 4.27379 3.02017C4.11349 3.20624 3.99329 3.42338 3.92071 3.658C3.84812 3.89263 3.8247 4.1397 3.85192 4.38379C3.87915 4.62787 3.95642 4.86372 4.07891 5.07659L12.2133 19.1735C13.1273 20.7516 15.5422 20.1032 15.5422 18.2828V2.00627C15.5444 1.7603 15.4954 1.51657 15.3982 1.2906C15.301 1.06463 15.1578 0.861382 14.9777 0.693807C14.7977 0.526231 14.5847 0.398003 14.3523 0.317292C14.1199 0.236581 13.8733 0.205158 13.6281 0.225024C10.5839 0.46694 7.60965 1.26392 4.85235 2.57659Z" fill="black"/>
</g>
<defs>
<clipPath id="clip0">
<rect width="30" height="40" fill="white" transform="translate(0 0.21875)"/>
</clipPath>
</defs>
</svg>
